<svg xmlns="http://www.w3.org/2000/svg" width="41.039" height="52.164" viewBox="0 0 41.039 52.164"><g transform="translate(-29 -8755.836)"><rect width="33" height="45" rx="6" transform="translate(29 8763)"/><g transform="translate(37.216 8755.837)"><path d="M206.966,352.577v27.391a4.979,4.979,0,0,1-4.979,4.979H179.43a4.979,4.979,0,0,1-4.979-4.979V346.234a4.979,4.979,0,0,1,4.979-4.979h16.311v-.1H179.43a5.08,5.08,0,0,0-5.08,5.08v33.734a5.08,5.08,0,0,0,5.08,5.08h22.557a5.08,5.08,0,0,0,5.08-5.08V352.577Z" transform="translate(-174.35 -341.154)" fill="#5a5a5a"/><path d="M196.173,349.781c-.068-2.228-.044-6.673-.034-8.127H179.829a4.979,4.979,0,0,0-4.979,4.979v33.734a4.979,4.979,0,0,0,4.979,4.979h22.557a4.979,4.979,0,0,0,4.979-4.979V352.975H199.8S196.256,352.467,196.173,349.781Z" transform="translate(-174.748 -341.552)" fill="#5a5a5a"/></g><line x2="16.46" transform="translate(45.446 8787.266)" fill="none" stroke="#fff" stroke-linecap="round" stroke-width="1"/><g transform="translate(45.344 8791.33)"><line x2="7.722" transform="translate(0)" fill="none" stroke="#fff" stroke-linecap="round" stroke-width="1"/><line x2="2.235" transform="translate(9.754)" fill="none" stroke="#fff" stroke-linecap="round" stroke-width="1"/><line x2="2.235" transform="translate(14.225)" fill="none" stroke="#fff" stroke-linecap="round" stroke-width="1"/></g><path d="M1346.411-17345.645l11.389,11.414h-7.85s-3.43-.494-3.51-3.092S1346.411-17345.645,1346.411-17345.645Z" transform="translate(-1287.761 26101.48)" fill="#a2a2a2"/><circle cx="9" cy="9" r="9" transform="translate(45 8765)" fill="#2e2e2e"/><path d="M3880.06,22408.762c.426-2.689,3.146-4.764,6.439-4.764a6.452,6.452,0,0,1,6.244,3.963,9,9,0,0,1-12.683.8Z" transform="translate(-3832.061 -13628)" fill="#fff"/><circle cx="3" cy="3" r="3" transform="translate(51 8769)" fill="#fff"/></g></svg>