<svg xmlns="http://www.w3.org/2000/svg" width="500" height="128.074" viewBox="0 0 500 128.074"><g transform="translate(-6113 23435.074)"><text transform="translate(6113 -23310)" fill="#1f356b" font-size="21" font-family="HiraKakuPro-W6, Hiragino Kaku Gothic Pro" letter-spacing="0.539em"><tspan x="0" y="0">会場：日本電子専門学校</tspan><tspan y="0" fill="#6945ff">７</tspan><tspan y="0">号館</tspan><tspan y="0" fill="#6945ff">7</tspan><tspan y="0">階</tspan></text><g transform="translate(4955 -23639)"><g transform="translate(15 -4)"><g transform="translate(1145 251)"><rect width="23" height="23" rx="3" fill="#6945ff"/><text transform="translate(4 16)" fill="#fff" font-size="14" font-family="HiraKakuPro-W6, Hiragino Kaku Gothic Pro" letter-spacing="0.15em"><tspan x="0" y="0">水</tspan></text></g><g transform="translate(1183.135 251)"><rect width="23" height="23" rx="3" transform="translate(-0.135)" fill="#6945ff"/><text transform="translate(3.865 16)" fill="#fff" font-size="14" font-family="HiraKakuPro-W6, Hiragino Kaku Gothic Pro" letter-spacing="0.15em"><tspan x="0" y="0">木</tspan></text></g><g transform="translate(1431.82 251)"><rect width="23" height="23" rx="3" transform="translate(0.18)" fill="#6945ff"/><text transform="translate(4.18 16)" fill="#fff" font-size="14" font-family="HiraKakuPro-W6, Hiragino Kaku Gothic Pro" letter-spacing="0.15em"><tspan x="0" y="0">金</tspan></text></g><g transform="translate(12)"><text transform="translate(1209 270)" fill="#1f356b" font-size="21" font-family="HiraKakuPro-W6, Hiragino Kaku Gothic Pro" letter-spacing="0.05em"><tspan x="0" y="0">13:00</tspan></text><text transform="translate(1312 270)" fill="#1f356b" font-size="21" font-family="HiraKakuPro-W6, Hiragino Kaku Gothic Pro" letter-spacing="0.05em"><tspan x="0" y="0">20:30</tspan></text><line x2="12" transform="translate(1289.5 263.5)" fill="none" stroke="#233667" stroke-linecap="round" stroke-width="2"/></g><g transform="translate(1)"><text transform="translate(1469 270)" fill="#1f356b" font-size="21" font-family="HiraKakuPro-W6, Hiragino Kaku Gothic Pro" letter-spacing="0.05em"><tspan x="0" y="0">10:00</tspan></text><text transform="translate(1572 270)" fill="#1f356b" font-size="21" font-family="HiraKakuPro-W6, Hiragino Kaku Gothic Pro" letter-spacing="0.05em"><tspan x="0" y="0">15:00</tspan></text><line x2="12" transform="translate(1549.5 263.5)" fill="none" stroke="#233667" stroke-linecap="round" stroke-width="2"/></g></g><g transform="translate(14.766)"><text transform="translate(1144.234 227.925)" fill="#1f356b" font-size="27" font-family="HiraKakuPro-W6, Hiragino Kaku Gothic Pro" letter-spacing="0.217em"><tspan x="0" y="0">2021/2/10</tspan></text><g transform="translate(2)"><rect width="27" height="27" rx="3" transform="translate(1361 204)" fill="#6945ff"/><text transform="translate(1366 224)" fill="#fff" font-size="17" font-family="HiraKakuPro-W6, Hiragino Kaku Gothic Pro" letter-spacing="0.15em"><tspan x="0" y="0">水</tspan></text></g><text transform="translate(1441.234 227.925)" fill="#1f356b" font-size="27" font-family="HiraKakuPro-W6, Hiragino Kaku Gothic Pro" letter-spacing="0.15em"><tspan x="0" y="0">11</tspan></text><g transform="translate(126)"><rect width="27" height="27" rx="3" transform="translate(1361 204)" fill="#6945ff"/><text transform="translate(1366 224)" fill="#fff" font-size="17" font-family="HiraKakuPro-W6, Hiragino Kaku Gothic Pro" letter-spacing="0.15em"><tspan x="0" y="0">木</tspan></text></g><text transform="translate(1564.234 227.925)" fill="#1f356b" font-size="27" font-family="HiraKakuPro-W6, Hiragino Kaku Gothic Pro" letter-spacing="0.15em"><tspan x="0" y="0">12</tspan></text><g transform="translate(254)"><rect width="27" height="27" rx="3" transform="translate(1361 204)" fill="#6945ff"/><text transform="translate(1366 224)" fill="#fff" font-size="17" font-family="HiraKakuPro-W6, Hiragino Kaku Gothic Pro" letter-spacing="0.15em"><tspan x="0" y="0">金</tspan></text></g><line x2="30" transform="translate(1400.5 217.5)" fill="none" stroke="#233667" stroke-linecap="round" stroke-width="2"/><line x2="30" transform="translate(1525 217.5)" fill="none" stroke="#233667" stroke-linecap="round" stroke-width="2"/></g></g></g></svg>